# Blender v2.80 (sub 75) OBJ File: 'center.blend'
# www.blender.org
o center
v 1.182625 9.042703 26.133451
v -1.190914 9.042703 26.133451
v -0.949661 -0.000004 26.000000
v -1.000000 -0.000001 4.000000
v 0.991711 -0.000001 4.000000
v 1.294299 9.044076 26.211531
v 1.363426 9.044079 3.788409
v -1.371715 9.044079 3.788409
v -0.004144 10.481403 3.788409
v -1.302587 9.044076 26.211531
v 1.245808 9.042706 3.866488
v -1.254097 9.042706 3.866488
v -0.004144 10.481400 26.211531
v -0.004144 -0.000001 4.000000
v 0.941373 -0.000004 26.000000
v -0.004144 -0.000004 26.000000
v -0.004144 10.363791 3.866488
v -0.004144 10.363788 26.133451
v 1.363426 9.044077 14.999969
v -1.371715 9.044077 14.999969
v -0.004144 10.531280 14.999969
v -1.254097 9.042704 14.999969
v -1.000000 -0.000002 15.000000
v 1.245808 9.042704 14.999969
v 0.991711 -0.000002 15.000000
v 1.228496 9.044077 15.013535
v -0.004144 10.421084 15.013535
v -0.901744 -0.000002 15.012097
v 1.122482 9.042704 15.012214
v -1.236784 9.044077 15.013535
v -0.004144 9.042706 3.866488
v -1.130771 9.042704 15.012214
v 0.893456 -0.000002 15.012097
v -0.987407 2.970375 26.068306
v -0.004144 2.970375 26.068306
v -0.004144 2.970375 3.931663
v 0.979118 2.970375 26.068306
v -1.039755 2.970375 3.931663
v 1.031466 2.970375 3.931663
v 1.031466 2.970375 14.999985
v -1.039755 2.970375 14.999985
v -0.937577 2.970375 15.012157
v 0.929288 2.970375 15.012157
v -1.190914 5.981105 26.133451
v -0.004144 5.981105 26.133451
v -0.004144 5.981105 3.866488
v 1.182625 5.981105 26.133451
v -1.254097 5.981105 3.866488
v 1.245808 5.981105 3.866488
v 1.245808 5.981105 14.999969
v -1.254097 5.981105 14.999969
v -1.130771 5.981105 15.012213
v 1.122482 5.981105 15.012213
v -0.949661 2.920498 26.000000
v -0.004144 2.920498 26.000000
v -0.004144 2.920498 4.000000
v 0.941373 2.920498 26.000000
v -0.979631 2.920498 4.000000
v 0.971342 2.920498 4.000000
v 0.971342 2.920498 15.000000
v -0.979631 2.920498 15.000000
v -0.901744 2.920498 15.012097
v 0.893456 2.920498 15.012097
v -0.987407 5.937361 26.068308
v -0.004144 5.937361 26.068308
v -0.004144 5.937361 3.931664
v 0.979118 5.937361 26.068308
v -1.023080 5.960349 3.931664
v 1.014791 5.960349 3.931664
v 1.014791 5.960349 14.999985
v -1.023080 5.960349 14.999985
v -0.937577 5.937361 15.012157
v 0.929288 5.937361 15.012157
v -2.675479 9.000000 7.500000
v -2.675479 9.000000 0.000001
v -4.523603 10.842654 22.457060
v -3.000000 0.000000 0.000000
v -4.523603 10.842654 15.047374
v -2.675479 9.000000 15.000000
v -2.675479 9.000000 22.500000
v -3.000000 0.000000 22.500000
v -3.000000 0.000000 15.000000
v -3.000000 0.000000 7.500000
v -4.647072 10.842654 14.954716
v -4.647072 10.842654 7.555910
v -3.136322 0.000000 15.000000
v -3.136322 0.000000 7.500000
v -2.529612 9.066246 7.461078
v -2.529612 9.066246 0.000001
v -3.058745 0.000000 30.000000
v -3.058745 0.000000 22.500000
v -2.582818 9.066246 30.000000
v -2.582818 9.066246 22.550575
v -2.798947 9.000000 7.500000
v -2.798947 9.000000 15.000000
v -2.728685 9.000000 22.500000
v -2.728685 9.000000 30.000000
v -4.804795 10.776408 7.500000
v -4.804795 10.776408 15.000000
v -4.722677 10.776408 22.500000
v -2.529612 8.956203 22.457060
v -4.669471 10.776408 15.000000
v -2.529612 8.956203 15.047374
v -2.653080 9.050900 14.954716
v -2.653080 9.050900 7.555910
v -4.523603 10.842654 -0.000000
v -4.523603 10.842654 7.461078
v -4.576809 10.842654 30.000000
v -4.576809 10.842654 22.550575
v -2.954052 2.983403 22.500000
v -2.954052 2.983403 15.000000
v -2.954052 2.983403 0.000000
v -3.012797 2.983403 30.000000
v -2.954052 2.983403 7.500000
v -3.090374 2.983403 15.000000
v -3.090374 2.983403 7.500000
v -3.012797 2.983403 22.500000
v -2.675479 5.991701 22.500000
v -2.675479 5.991701 15.000000
v -2.675479 5.991701 0.000000
v -2.675479 5.991701 7.500000
v -2.798947 5.991701 15.000000
v -2.798947 5.991701 7.500000
v -2.728685 5.991701 22.500000
v -2.728685 5.991701 30.000000
v -3.072449 2.993069 30.000000
v -3.013704 2.993069 22.500000
v -3.013704 2.993069 15.000000
v -3.013704 2.956807 0.000000
v -3.013704 2.956807 7.500000
v -3.150027 2.993069 15.000000
v -3.150027 2.993069 7.500000
v -3.072449 2.993069 22.500000
v -3.031602 5.990292 30.000000
v -2.972857 5.990292 22.500000
v -2.972857 5.990292 15.000000
v -2.972857 5.973670 0.000000
v -2.972857 5.990292 7.500000
v -3.109179 5.990292 15.000000
v -3.109179 5.990292 7.500000
v -3.031602 5.990292 22.500000
v 2.617649 9.000000 7.500000
v 2.617649 9.000000 0.000001
v 4.465774 10.842654 22.457060
v 3.000000 0.000000 0.000000
v 4.465774 10.842654 15.047374
v 2.617649 9.000000 15.000000
v 2.617649 9.000000 22.500000
v 3.000000 0.000000 22.500000
v 3.000000 0.000000 15.000000
v 3.000000 0.000000 7.500000
v 4.589242 10.842654 14.954716
v 4.589242 10.842654 7.555910
v 3.136322 0.000000 15.000000
v 3.136322 0.000000 7.500000
v 2.471782 9.066246 7.461078
v 2.471782 9.066246 0.000001
v 3.058745 0.000000 30.000000
v 3.058745 0.000000 22.500000
v 2.524988 9.066246 30.000000
v 2.524988 9.066246 22.550575
v 2.741117 9.000000 7.500000
v 2.741117 9.000000 15.000000
v 2.670855 9.000000 22.500000
v 2.670855 9.000000 30.000000
v 5.273092 10.776408 7.500000
v 5.273092 10.776408 15.000000
v 5.182425 10.776408 22.500000
v 2.471782 8.956203 22.457060
v 5.123679 10.776408 15.000000
v 2.471782 8.956203 15.047374
v 2.595250 9.050900 14.954716
v 2.595250 9.050900 7.555910
v 4.465774 10.842654 -0.000000
v 4.465774 10.842654 7.461078
v 4.518980 10.842654 30.000000
v 4.518980 10.842654 22.550575
v 2.954052 2.983403 22.500000
v 2.954052 2.983403 15.000000
v 2.954052 2.983403 0.000000
v 3.012797 2.983403 30.000000
v 2.954052 2.983403 7.500000
v 3.090374 2.983403 15.000000
v 3.090374 2.983403 7.500000
v 3.012797 2.983403 22.500000
v 2.617649 5.991701 22.500000
v 2.617649 5.991701 15.000000
v 2.617649 5.991701 0.000000
v 2.617649 5.991701 7.500000
v 2.741117 5.991701 15.000000
v 2.741117 5.991701 7.500000
v 2.670855 5.991701 22.500000
v 2.670855 5.991701 30.000000
v 3.072449 2.993069 30.000000
v 3.013704 2.993069 22.500000
v 3.013704 2.993069 15.000000
v 3.013704 2.956807 0.000000
v 3.013704 2.956807 7.500000
v 3.150027 2.993069 15.000000
v 3.150027 2.993069 7.500000
v 3.072449 2.993069 22.500000
v 3.031602 5.990292 30.000000
v 2.972857 5.990292 22.500000
v 2.972857 5.990292 15.000000
v 2.972857 5.973670 0.000000
v 2.972857 5.990292 7.500000
v 3.109179 5.990292 15.000000
v 3.109179 5.990292 7.500000
v 3.031602 5.990292 22.500000
v -4.715725 9.000000 0.000001
v -4.715725 -0.000000 0.000000
v -4.715725 9.066246 0.000001
v -4.715725 10.842654 -0.000000
v -4.715725 2.983403 0.000000
v -4.715725 5.991701 0.000000
v -4.715725 2.993069 0.000000
v -4.715725 5.973670 0.000000
v 4.642455 9.000000 0.000001
v 4.642455 -0.000000 0.000000
v 4.642455 9.066246 0.000001
v 4.642455 10.842654 -0.000000
v 4.642455 2.983403 0.000000
v 4.642455 5.991701 0.000000
v 4.642455 2.993069 0.000000
v 4.642455 5.973670 0.000000
vt -0.004144 3.051393
vt -1.000000 3.051393
vt -1.000000 0.000000
vt -0.004144 0.000000
vt 14.999999 3.051393
vt 4.000000 3.051393
vt 4.000000 0.000000
vt 15.000000 0.000000
vt 0.004144 3.051393
vt -0.991711 3.051393
vt -0.991711 0.000000
vt 0.004144 0.000000
vt -15.186365 3.051393
vt -25.999998 3.051393
vt -26.000000 0.000000
vt -15.186365 0.000000
vt -15.000000 9.000000
vt -4.000000 9.000000
vt -4.000000 9.000000
vt -15.000000 9.000000
vt -0.991711 9.000000
vt 0.004144 9.000000
vt 0.004144 9.000000
vt -0.991711 9.000000
vt 1.000000 3.051393
vt 1.000000 0.000000
vt 0.991711 3.051393
vt 0.991711 0.000000
vt 0.004144 15.186364
vt 1.000000 15.186364
vt 1.000000 26.000000
vt 0.004144 26.000000
vt -0.991711 15.186364
vt -0.991711 26.000000
vt -1.000000 9.000000
vt -0.004144 9.000000
vt -0.004144 9.000000
vt -1.000000 9.000000
vt 0.991711 9.000000
vt 0.991711 9.000000
vt 1.000000 9.000000
vt 1.000000 9.000000
vt 15.186365 9.000000
vt 26.000000 9.000000
vt 26.000000 9.000000
vt 15.186364 9.000000
vt 4.000000 9.000000
vt 15.000000 9.000000
vt 15.000000 9.000000
vt 4.000000 9.000000
vt -0.991711 4.000000
vt 0.004144 4.000000
vt 0.004144 15.000000
vt -0.991711 15.000000
vt 1.000000 4.000000
vt 1.000000 15.000000
vt 0.004144 8.124622
vt 1.000000 6.095946
vt 0.004144 6.095944
vt -15.186365 9.000000
vt -15.186364 9.000000
vt -4.000000 3.051393
vt -15.000000 3.051393
vt -15.000000 0.000000
vt -4.000000 0.000000
vt 15.186367 3.051393
vt 15.186365 0.000000
vt 26.000000 3.051393
vt 26.000000 0.000000
vt -26.000000 9.000000
vt -26.000000 9.000000
vt -14.999999 5.984914
vt -15.186365 5.984914
vt -15.186365 3.191892
vt -15.000001 3.191892
vt 26.000000 5.984914
vt 15.186366 5.984914
vt 15.186367 3.191892
vt 26.000000 3.191891
vt 15.000000 5.984914
vt 15.000000 3.191891
vt -4.000000 5.984914
vt -4.000000 3.191891
vt 0.991711 5.984913
vt -0.004144 5.984913
vt -0.004144 3.191892
vt 0.991711 3.191891
vt 1.000000 5.984914
vt 0.004144 5.984912
vt 0.004144 3.191891
vt 1.000000 3.191891
vt -26.000000 5.984914
vt -26.000000 3.191891
vt -0.991711 5.984914
vt -0.991711 3.191891
vt 4.000000 5.984914
vt 4.000000 3.191891
vt -1.000000 5.984913
vt -1.000000 3.191891
vt -1.000000 6.095945
vt -0.004144 6.095945
vt 4.000000 6.095946
vt 15.000000 6.095946
vt -0.991711 6.095946
vt -26.000000 6.095946
vt -15.186365 6.095946
vt 0.991711 6.095945
vt -15.000000 6.095946
vt -4.000000 6.095946
vt 15.186367 6.095946
vt 26.000000 6.095946
vt 0.677516 0.750000
vt 1.000000 0.750000
vt 1.000000 1.000000
vt 0.677517 1.000000
vt 0.000000 0.750000
vt 0.000000 1.000000
vt 0.000000 1.000000
vt 0.000000 0.750000
vt 0.677517 0.250000
vt 1.000000 0.250000
vt 1.000000 0.500000
vt 0.677516 0.500000
vt 0.677517 0.000000
vt 1.000000 0.000000
vt 1.000000 0.250000
vt 0.677516 0.250000
vt 0.677516 0.500000
vt 1.000000 0.500000
vt 1.000000 0.750000
vt 0.677516 0.750000
vt 0.000000 0.750000
vt 0.000000 0.500000
vt 0.000000 0.500000
vt 0.000000 0.750000
vt 0.332417 0.750000
vt 0.332417 0.750000
vt 0.332417 0.250000
vt 0.000000 0.250000
vt 0.000000 0.250000
vt 0.332417 0.250000
vt 0.000000 0.250000
vt 0.000000 0.250000
vt 0.000000 0.250000
vt 0.000000 0.000000
vt 0.000000 0.000000
vt 0.000000 0.250000
vt 0.000000 1.000000
vt 0.000000 0.750000
vt 0.000000 0.500000
vt 0.000000 0.500000
vt 0.000000 0.750000
vt 0.000000 0.500000
vt 0.000000 0.500000
vt 0.000000 0.500000
vt 0.000000 0.750000
vt 0.000000 0.500000
vt 0.000000 0.250000
vt 0.000000 0.000000
vt 0.664834 0.250000
vt 0.664834 0.250000
vt 0.341301 0.500000
vt 0.664834 0.500000
vt 0.664834 0.500000
vt 0.341301 0.500000
vt 0.664834 0.750000
vt 0.664834 0.750000
vt 0.341301 0.750000
vt 0.341301 0.000000
vt 0.664834 0.000000
vt 0.341301 0.250000
vt 0.341301 0.250000
vt 0.341301 0.750000
vt 0.664834 1.000000
vt 0.341301 1.000000
vt 0.332417 1.000000
vt 0.332417 0.500000
vt 0.332417 0.000000
vt 0.332417 0.500000
vt 0.677516 0.750000
vt 0.677517 1.000000
vt 1.000000 1.000000
vt 1.000000 0.750000
vt 0.000000 0.750000
vt 0.000000 0.750000
vt 0.000000 1.000000
vt 0.000000 1.000000
vt 0.677517 0.250000
vt 0.677516 0.500000
vt 1.000000 0.500000
vt 1.000000 0.250000
vt 0.677517 0.000000
vt 0.677516 0.250000
vt 1.000000 0.250000
vt 1.000000 0.000000
vt 0.677516 0.500000
vt 0.677516 0.750000
vt 1.000000 0.750000
vt 1.000000 0.500000
vt 0.000000 0.750000
vt 0.000000 0.750000
vt 0.000000 0.500000
vt 0.000000 0.500000
vt 0.332417 0.750000
vt 0.332417 0.750000
vt 0.332417 0.250000
vt 0.332417 0.250000
vt 0.000000 0.250000
vt 0.000000 0.250000
vt 0.000000 0.250000
vt 0.000000 0.250000
vt 0.000000 0.250000
vt 0.000000 0.250000
vt 0.000000 0.000000
vt 0.000000 0.000000
vt 0.000000 0.750000
vt 0.000000 1.000000
vt 0.000000 0.500000
vt 0.000000 0.500000
vt 0.000000 0.750000
vt 0.000000 0.500000
vt 0.000000 0.500000
vt 0.000000 0.500000
vt 0.000000 0.500000
vt 0.000000 0.750000
vt 0.000000 0.000000
vt 0.000000 0.250000
vt 0.664834 0.250000
vt 0.664834 0.250000
vt 0.341301 0.500000
vt 0.341301 0.500000
vt 0.664834 0.500000
vt 0.664834 0.500000
vt 0.664834 0.750000
vt 0.664834 0.750000
vt 0.341301 0.750000
vt 0.341301 0.000000
vt 0.341301 0.250000
vt 0.664834 0.000000
vt 0.341301 0.250000
vt 0.341301 0.750000
vt 0.341301 1.000000
vt 0.664834 1.000000
vt 0.332417 1.000000
vt 0.332417 0.500000
vt 0.332417 0.000000
vt 0.332417 0.500000
vt 0.341301 1.000000
vt 0.664834 1.000000
vt 0.332417 1.000000
vt 0.000000 1.000000
vt 0.000000 1.000000
vt 0.332417 1.000000
vt 0.000000 1.000000
vt 0.677517 1.000000
vt 0.664834 1.000000
vt 0.341301 1.000000
vt 0.000000 1.000000
vt 0.677517 1.000000
vt 0.000000 1.000000
vt 0.000000 1.000000
vt 1.000000 1.000000
vt 1.000000 1.000000
vn 0.0000 0.0000 1.0000
vn -1.0000 0.0070 0.0000
vn 0.0000 0.0000 -1.0000
vn 1.0000 0.0000 -0.0044
vn 0.0117 -0.9999 -0.0000
vn -0.4951 -0.4698 -0.7309
vn -0.7435 0.6687 -0.0040
vn 0.7435 0.6687 -0.0040
vn 0.5146 -0.4636 0.7213
vn -0.5146 -0.4636 0.7213
vn 0.4951 -0.4698 -0.7309
vn -0.0126 -0.9999 -0.0001
vn -0.0117 -0.9999 -0.0000
vn 0.7304 0.6831 -0.0015
vn -0.7304 0.6831 -0.0015
vn 0.0115 -0.9933 0.1154
vn 1.0000 0.0070 0.0000
vn -0.1361 0.0005 0.9907
vn -1.0000 0.0000 -0.0044
vn 0.0126 -0.9999 -0.0001
vn -0.0115 -0.9933 0.1154
vn 0.1141 0.1036 0.9881
vn -0.1141 0.1036 0.9881
vn 0.1361 0.0005 0.9907
vn 0.1286 0.0004 0.9917
vn -1.0000 0.0000 -0.0045
vn -0.1286 0.0004 0.9917
vn 1.0000 0.0056 0.0000
vn 1.0000 0.0000 -0.0045
vn -1.0000 0.0056 0.0000
vn -1.0000 -0.0000 0.0000
vn 1.0000 0.0000 -0.0054
vn 1.0000 -0.0000 0.0000
vn -0.0988 -0.0000 0.9951
vn -1.0000 0.0000 -0.0054
vn 0.0988 -0.0000 0.9951
vn 0.1325 -0.1279 0.9829
vn -0.8059 -0.5920 -0.0036
vn -0.1325 -0.1279 0.9829
vn 0.6385 -0.7696 0.0000
vn 0.0000 -0.8076 0.5897
vn 0.0000 -0.8077 -0.5895
vn 0.8059 -0.5920 -0.0036
vn -0.6385 -0.7696 0.0000
vn 0.0000 -0.8302 0.5575
vn -0.0895 -0.9960 0.0000
vn 0.0091 -0.9026 -0.4304
vn 0.2155 -0.9765 -0.0011
vn -0.0091 -0.9026 -0.4304
vn 0.0895 -0.9960 0.0000
vn -0.1416 -0.9318 0.3342
vn -0.2155 -0.9765 -0.0011
vn 0.1416 -0.9318 0.3342
vn 1.0000 0.0046 0.0000
vn 0.4135 -0.9105 0.0000
vn -0.3295 0.9442 0.0000
vn 0.2195 0.2422 0.9451
vn -0.4135 0.9105 0.0000
vn 0.6652 0.7467 0.0000
vn 0.6872 0.7264 0.0000
vn 0.1313 0.1524 0.9796
vn 0.2740 0.2983 -0.9143
vn 0.6684 0.7438 0.0000
vn -0.2876 -0.9578 0.0000
vn 0.2171 0.2437 -0.9453
vn 0.2398 0.2689 -0.9328
vn 0.1987 0.2228 0.9544
vn 1.0000 0.0063 0.0000
vn -0.1600 -0.9871 0.0000
vn 0.4072 -0.9133 0.0000
vn 0.0327 -0.9995 0.0011
vn 0.0047 -1.0000 0.0000
vn 0.0045 -1.0000 0.0000
vn -1.0000 0.0046 0.0000
vn -0.4135 -0.9105 0.0000
vn 0.3295 0.9442 0.0000
vn -0.0953 0.1186 0.9884
vn 0.4135 0.9105 0.0000
vn -0.6652 0.7467 0.0000
vn -0.6872 0.7264 0.0000
vn -0.0687 0.0898 0.9936
vn -0.1122 0.1378 -0.9841
vn -0.6684 0.7438 0.0000
vn 0.2876 -0.9578 0.0000
vn -0.1021 0.1295 -0.9863
vn -0.1124 0.1426 -0.9834
vn -0.0916 0.1161 0.9890
vn -1.0000 0.0063 0.0000
vn 0.1600 -0.9871 0.0000
vn -0.4072 -0.9133 0.0000
vn -0.0274 -0.9996 0.0011
vn -0.0040 -1.0000 0.0000
vn -0.0039 -1.0000 0.0000
vn -0.0038 -1.0000 0.0000
s off
f 55/1/1 54/2/1 3/3/1 16/4/1
f 61/5/2 58/6/2 4/7/2 23/8/2
f 56/9/3 59/10/3 5/11/3 14/12/3
f 63/13/4 57/14/4 15/15/4 33/16/4
f 24/17/5 11/18/5 7/19/5 19/20/5
f 11/21/6 17/22/6 9/23/6 7/24/6
f 58/25/3 56/9/3 14/12/3 4/26/3
f 57/27/1 55/1/1 16/4/1 15/28/1
f 27/29/7 30/30/7 10/31/7 13/32/7
f 26/33/8 27/29/8 13/32/8 6/34/8
f 2/35/9 18/36/9 13/37/9 10/38/9
f 18/36/10 1/39/10 6/40/10 13/37/10
f 17/22/11 12/41/11 8/42/11 9/23/11
f 32/43/12 2/44/12 10/45/12 30/46/12
f 12/47/13 22/48/13 20/49/13 8/50/13
f 7/51/14 9/52/14 21/53/14 19/54/14
f 9/52/15 8/55/15 20/56/15 21/53/15
f 17/22/3 11/21/3 31/57/3
f 48/58/3 12/41/3 31/57/3 46/59/3
f 29/60/16 24/17/16 19/20/16 26/61/16
f 59/62/17 60/63/17 25/64/17 5/65/17
f 62/66/18 61/5/18 23/8/18 28/67/18
f 54/68/19 62/66/19 28/67/19 3/69/19
f 1/70/20 29/60/20 26/61/20 6/71/20
f 22/48/21 32/43/21 30/46/21 20/49/21
f 19/54/22 21/53/22 27/29/22 26/33/22
f 21/53/23 20/56/23 30/30/23 27/29/23
f 60/63/24 63/13/24 33/16/24 25/64/24
f 70/72/25 73/73/25 43/74/25 40/75/25
f 64/76/26 72/77/26 42/78/26 34/79/26
f 72/77/27 71/80/27 41/81/27 42/78/27
f 69/82/28 70/72/28 40/75/28 39/83/28
f 67/84/1 65/85/1 35/86/1 37/87/1
f 68/88/3 66/89/3 36/90/3 38/91/3
f 73/73/29 67/92/29 37/93/29 43/74/29
f 66/89/3 69/94/3 39/95/3 36/90/3
f 71/80/30 68/96/30 38/97/30 41/81/30
f 65/85/1 64/98/1 34/99/1 35/86/1
f 18/36/1 2/35/1 44/100/1 45/101/1
f 22/48/31 12/47/31 48/102/31 51/103/31
f 11/21/3 49/104/3 46/59/3 31/57/3
f 29/60/32 1/70/32 47/105/32 53/106/32
f 12/41/3 17/22/3 31/57/3
f 1/39/1 18/36/1 45/101/1 47/107/1
f 11/18/33 24/17/33 50/108/33 49/109/33
f 32/43/34 22/48/34 51/103/34 52/110/34
f 2/44/35 32/43/35 52/110/35 44/111/35
f 24/17/36 29/60/36 53/106/36 50/108/36
f 40/75/37 43/74/37 63/13/37 60/63/37
f 34/79/38 42/78/38 62/66/38 54/68/38
f 42/78/39 41/81/39 61/5/39 62/66/39
f 39/83/40 40/75/40 60/63/40 59/62/40
f 37/87/41 35/86/41 55/1/41 57/27/41
f 38/91/42 36/90/42 56/9/42 58/25/42
f 43/74/43 37/93/43 57/14/43 63/13/43
f 36/90/42 39/95/42 59/10/42 56/9/42
f 41/81/44 38/97/44 58/6/44 61/5/44
f 35/86/41 34/99/41 54/2/41 55/1/41
f 45/101/45 44/100/45 64/98/45 65/85/45
f 51/103/46 48/102/46 68/96/46 71/80/46
f 46/59/47 49/104/47 69/94/47 66/89/47
f 53/106/48 47/105/48 67/92/48 73/73/48
f 48/58/49 46/59/49 66/89/49 68/88/49
f 47/107/45 45/101/45 65/85/45 67/84/45
f 49/109/50 50/108/50 70/72/50 69/82/50
f 52/110/51 51/103/51 71/80/51 72/77/51
f 44/111/52 52/110/52 72/77/52 64/76/52
f 50/108/53 53/106/53 73/73/53 70/72/53
f 130/112/54 83/113/54 77/114/54 129/115/54
f 74/116/55 75/117/55 89/118/55 88/119/55
f 127/120/54 81/121/54 82/122/54 128/123/54
f 126/124/54 90/125/54 91/126/54 133/127/54
f 131/128/54 86/129/54 87/130/54 132/131/54
f 94/132/56 95/133/56 104/134/56 105/135/56
f 121/136/1 74/116/1 94/132/1 123/137/1
f 128/123/3 82/122/3 86/129/3 131/128/3
f 118/138/1 80/139/1 96/140/1 124/141/1
f 100/142/57 80/139/57 101/143/57 76/144/57
f 96/140/58 97/145/58 92/146/58 93/147/58
f 88/119/59 89/118/59 106/148/59 107/149/59
f 101/143/60 103/150/60 78/151/60 76/144/60
f 98/152/61 74/116/61 88/119/61 107/149/61
f 79/153/62 102/154/62 78/151/62 103/150/62
f 94/132/1 74/116/1 98/152/1
f 79/153/3 95/133/3 99/155/3 102/154/3
f 105/135/63 85/156/63 84/157/63 104/134/63
f 96/140/1 80/139/1 100/142/1
f 93/147/59 109/158/59 108/159/59 92/146/59
f 80/139/64 79/153/64 103/150/64 101/143/64
f 100/142/65 109/158/65 93/147/65 96/140/65
f 98/152/66 85/156/66 105/135/66 94/132/66
f 95/133/67 104/134/67 84/157/67 99/155/67
f 127/120/3 110/160/3 117/161/3 133/127/3
f 136/162/3 111/163/3 115/164/3 139/165/3
f 130/112/1 114/166/1 116/167/1 132/131/1
f 139/165/68 115/164/68 116/167/68 140/168/68
f 134/169/68 113/170/68 117/161/68 141/171/68
f 135/172/68 110/160/68 111/163/68 136/162/68
f 138/173/68 114/166/68 112/174/68 137/175/68
f 74/116/33 121/136/33 120/176/33 75/117/33
f 80/139/33 118/138/33 119/177/33 79/153/33
f 97/145/33 125/178/33 124/141/33 96/140/33
f 95/133/33 122/179/33 123/137/33 94/132/33
f 79/153/3 119/177/3 122/179/3 95/133/3
f 135/172/1 118/138/1 124/141/1 141/171/1
f 138/173/1 121/136/1 123/137/1 140/168/1
f 83/113/1 130/112/1 132/131/1 87/130/1
f 81/121/1 127/120/1 133/127/1 91/126/1
f 111/163/1 128/123/1 131/128/1 115/164/1
f 115/164/69 131/128/69 132/131/69 116/167/69
f 113/170/69 126/124/69 133/127/69 117/161/69
f 110/160/69 127/120/69 128/123/69 111/163/69
f 114/166/70 130/112/70 129/115/70 112/174/70
f 114/166/1 138/173/1 140/168/1 116/167/1
f 110/160/1 135/172/1 141/171/1 117/161/1
f 121/136/71 138/173/71 137/175/71 120/176/71
f 118/138/72 135/172/72 136/162/72 119/177/72
f 125/178/72 134/169/72 141/171/72 124/141/72
f 122/179/73 139/165/73 140/168/73 123/137/73
f 119/177/3 136/162/3 139/165/3 122/179/3
f 198/180/74 197/181/74 145/182/74 151/183/74
f 142/184/75 156/185/75 157/186/75 143/187/75
f 195/188/74 196/189/74 150/190/74 149/191/74
f 194/192/74 201/193/74 159/194/74 158/195/74
f 199/196/74 200/197/74 155/198/74 154/199/74
f 162/200/76 173/201/76 172/202/76 163/203/76
f 189/204/1 191/205/1 162/200/1 142/184/1
f 196/189/3 199/196/3 154/199/3 150/190/3
f 186/206/1 192/207/1 164/208/1 148/209/1
f 168/210/77 144/211/77 169/212/77 148/209/77
f 164/208/78 161/213/78 160/214/78 165/215/78
f 156/185/79 175/216/79 174/217/79 157/186/79
f 169/212/80 144/211/80 146/218/80 171/219/80
f 166/220/81 175/216/81 156/185/81 142/184/81
f 147/221/82 171/219/82 146/218/82 170/222/82
f 162/200/1 166/220/1 142/184/1
f 147/221/3 170/222/3 167/223/3 163/203/3
f 173/201/83 172/202/83 152/224/83 153/225/83
f 164/208/1 168/210/1 148/209/1
f 161/213/79 160/214/79 176/226/79 177/227/79
f 148/209/84 169/212/84 171/219/84 147/221/84
f 168/210/85 164/208/85 161/213/85 177/227/85
f 166/220/86 162/200/86 173/201/86 153/225/86
f 163/203/87 167/223/87 152/224/87 172/202/87
f 195/188/3 201/193/3 185/228/3 178/229/3
f 204/230/3 207/231/3 183/232/3 179/233/3
f 198/180/1 200/197/1 184/234/1 182/235/1
f 207/231/88 208/236/88 184/234/88 183/232/88
f 202/237/88 209/238/88 185/228/88 181/239/88
f 203/240/88 204/230/88 179/233/88 178/229/88
f 206/241/88 205/242/88 180/243/88 182/235/88
f 142/184/31 143/187/31 188/244/31 189/204/31
f 148/209/31 147/221/31 187/245/31 186/206/31
f 165/215/31 164/208/31 192/207/31 193/246/31
f 163/203/31 162/200/31 191/205/31 190/247/31
f 147/221/3 163/203/3 190/247/3 187/245/3
f 203/240/1 209/238/1 192/207/1 186/206/1
f 206/241/1 208/236/1 191/205/1 189/204/1
f 151/183/1 155/198/1 200/197/1 198/180/1
f 149/191/1 159/194/1 201/193/1 195/188/1
f 179/233/1 183/232/1 199/196/1 196/189/1
f 183/232/89 184/234/89 200/197/89 199/196/89
f 181/239/89 185/228/89 201/193/89 194/192/89
f 178/229/89 179/233/89 196/189/89 195/188/89
f 182/235/90 180/243/90 197/181/90 198/180/90
f 182/235/1 184/234/1 208/236/1 206/241/1
f 178/229/1 185/228/1 209/238/1 203/240/1
f 189/204/91 188/244/91 205/242/91 206/241/91
f 186/206/92 187/245/92 204/230/92 203/240/92
f 193/246/93 192/207/93 209/238/93 202/237/93
f 190/247/94 191/205/94 208/236/94 207/231/94
f 187/245/3 190/247/3 207/231/3 204/230/3
f 180/243/3 205/242/3 225/248/3 222/249/3
f 75/117/3 120/176/3 215/250/3 210/251/3
f 188/244/3 143/187/3 218/252/3 223/253/3
f 89/118/3 75/117/3 210/251/3 212/254/3
f 112/174/3 129/115/3 216/255/3 214/256/3
f 120/176/3 137/175/3 217/257/3 215/250/3
f 143/187/3 157/186/3 220/258/3 218/252/3
f 197/181/3 180/243/3 222/249/3 224/259/3
f 106/148/3 89/118/3 212/254/3 213/260/3
f 205/242/3 188/244/3 223/253/3 225/248/3
f 157/186/3 174/217/3 221/261/3 220/258/3
f 129/115/3 77/114/3 211/262/3 216/255/3
f 137/175/3 112/174/3 214/256/3 217/257/3
f 145/182/3 197/181/3 224/259/3 219/263/3
