# Blender v2.80 (sub 75) OBJ File: 'center.blend'
# www.blender.org
o Cube_Cube.001
v -3.175473 2.797630 2.000000
v -3.175473 6.000000 2.000000
v -3.175473 2.797630 0.000000
v -3.175473 6.000000 0.000000
v 3.176338 2.797630 2.000000
v 3.176338 6.000000 2.000000
v 3.176338 2.797630 0.000000
v 3.176338 6.000000 0.000000
v -3.175473 2.797630 1.000000
v -3.175473 0.000000 0.000000
v 3.176338 2.797630 1.000000
v -3.175473 0.000000 2.000000
v -3.175473 6.788376 1.000000
v -3.175473 5.994457 -0.097154
v 3.176338 5.994457 -0.097154
v 3.176338 6.788376 1.000000
v 3.176338 5.994457 2.097154
v -3.175473 5.994457 2.097154
v 3.176338 0.000000 2.000000
v 3.176338 0.000000 0.000000
v -3.175473 0.000000 1.000000
v 3.176338 0.000000 1.000000
v 0.839026 3.220226 0.000000
v -0.838162 3.220226 0.000000
v -0.838161 6.103436 0.000000
v 0.839026 6.103436 0.000000
v -0.838161 3.220226 2.000000
v 0.839026 3.220226 2.000000
v 0.839026 6.103436 2.000000
v -0.838162 6.103436 2.000000
v 0.839026 3.220226 1.000000
v -0.838162 3.220226 1.000000
v -0.838161 6.097785 -0.097154
v 0.839026 6.097785 -0.097154
v 0.839026 6.097785 2.097154
v -0.838162 6.097785 2.097154
v -0.838161 6.907165 1.000000
v 0.839026 6.907165 1.000000
v -2.032643 6.054588 0.000000
v -2.032643 3.106863 2.000000
v -2.032643 6.048991 -0.097154
v -2.032643 6.850640 1.000000
v -2.032643 3.106863 0.000000
v -2.032643 6.054588 2.000000
v -2.032643 3.106863 1.000000
v -2.032643 6.048991 2.097154
v 2.033507 6.850640 1.000000
v 2.033507 6.048991 -0.097154
v 2.033507 3.106863 2.000000
v 2.033507 6.054588 0.000000
v 2.033507 6.048991 2.097154
v 2.033507 3.106863 1.000000
v 2.033507 6.054588 2.000000
v 2.033507 3.106863 0.000000
vt 0.125000 0.500000
vt 0.125000 0.625000
vt 0.125000 0.625000
vt 0.125000 0.500000
vt 0.375000 0.750000
vt 0.375000 0.625000
vt 0.375000 0.625000
vt 0.375000 0.750000
vt 0.375000 0.500000
vt 0.375000 0.500000
vt 0.125000 0.750000
vt 0.125000 0.750000
vt 0.625000 0.458333
vt 0.625000 0.416667
vt 0.625000 0.416667
vt 0.625000 0.458333
vt 0.625000 0.333333
vt 0.625000 0.333333
vt 0.625000 0.958333
vt 0.625000 0.916667
vt 0.625000 0.916667
vt 0.625000 0.958333
vt 0.625000 0.833333
vt 0.625000 0.833333
vt 0.666667 0.500000
vt 0.708333 0.500000
vt 0.708333 0.625000
vt 0.666667 0.625000
vt 0.791667 0.500000
vt 0.791667 0.625000
vt 0.708333 0.750000
vt 0.666667 0.750000
vt 0.791667 0.750000
vt 0.166667 0.500000
vt 0.208333 0.500000
vt 0.208333 0.625000
vt 0.166667 0.625000
vt 0.291667 0.500000
vt 0.291667 0.625000
vt 0.208333 0.750000
vt 0.166667 0.750000
vt 0.291667 0.750000
vt 0.375000 0.791667
vt 0.625000 0.791667
vt 0.375000 0.833333
vt 0.375000 0.916667
vt 0.375000 0.291667
vt 0.625000 0.291667
vt 0.375000 0.333333
vt 0.375000 0.416667
vt 0.625000 0.250000
vt 0.625000 0.250000
vt 0.625000 0.291667
vt 0.833333 0.500000
vt 0.875000 0.500000
vt 0.875000 0.625000
vt 0.833333 0.625000
vt 0.875000 0.750000
vt 0.833333 0.750000
vt 0.375000 0.958333
vt 0.625000 1.000000
vt 0.375000 1.000000
vt 0.625000 0.750000
vt 0.625000 0.750000
vt 0.625000 0.791667
vt 0.333333 0.500000
vt 0.333333 0.625000
vt 0.333333 0.750000
vt 0.375000 0.458333
vt 0.625000 0.500000
vt 0.375000 0.250000
vt 0.625000 1.000000
vt 0.625000 0.625000
vt 0.625000 0.500000
vn 1.0000 0.0000 0.0000
vn -1.0000 0.0000 0.0000
vn -0.0408 -0.9975 0.0577
vn 0.0000 -0.9983 0.0581
vn 0.0408 -0.9975 -0.0577
vn 0.0000 -0.9983 -0.0581
vn 0.0355 0.8056 -0.5914
vn 0.0000 0.8047 -0.5937
vn 0.0355 0.8056 0.5914
vn 0.0000 0.8047 0.5937
vn 0.0945 -0.9955 0.0000
vn 0.0000 -1.0000 0.0000
vn 0.0000 0.0000 1.0000
vn 0.0000 0.0000 -1.0000
vn 0.0476 -0.9972 0.0572
vn -0.0413 0.8081 -0.5876
vn -0.0413 0.8081 0.5876
vn -0.0476 -0.9972 -0.0572
vn -0.2612 -0.9653 0.0000
vn -0.0355 0.8056 0.5914
vn -0.0355 0.8056 -0.5914
vn 0.0408 -0.9975 0.0577
vn 0.2612 -0.9653 0.0000
vn 0.0476 -0.9972 -0.0572
vn -0.0945 -0.9955 0.0000
vn -0.0408 -0.9975 -0.0577
vn 0.0413 0.8081 0.5876
vn 0.0413 0.8081 -0.5876
vn -0.0476 -0.9972 0.0572
s off
f 3/1/1 9/2/1 21/3/1 10/4/1
f 5/5/2 11/6/2 22/7/2 19/8/2
f 11/6/2 7/9/2 20/10/2 22/7/2
f 9/2/1 1/11/1 12/12/1 21/3/1
f 50/13/3 26/14/3 34/15/3 48/16/3
f 26/14/4 25/17/4 33/18/4 34/15/4
f 44/19/5 30/20/5 36/21/5 46/22/5
f 30/20/6 29/23/6 35/24/6 36/21/6
f 48/25/7 34/26/7 38/27/7 47/28/7
f 34/26/8 33/29/8 37/30/8 38/27/8
f 47/28/9 38/27/9 35/31/9 51/32/9
f 38/27/10 37/30/10 36/33/10 35/31/10
f 43/34/11 24/35/11 32/36/11 45/37/11
f 24/35/12 23/38/12 31/39/12 32/36/12
f 45/37/11 32/36/11 27/40/11 40/41/11
f 32/36/12 31/39/12 28/42/12 27/40/12
f 49/43/13 53/44/13 29/23/13 28/45/13
f 28/45/13 29/23/13 30/20/13 27/46/13
f 43/47/14 39/48/14 25/17/14 24/49/14
f 24/49/14 25/17/14 26/14/14 23/50/14
f 39/48/15 4/51/15 14/52/15 41/53/15
f 41/54/16 14/55/16 13/56/16 42/57/16
f 42/57/17 13/56/17 18/58/17 46/59/17
f 40/60/13 44/19/13 2/61/13 1/62/13
f 53/44/18 6/63/18 17/64/18 51/65/18
f 54/66/19 7/9/19 11/6/19 52/67/19
f 52/67/19 11/6/19 5/5/19 49/68/19
f 54/69/14 50/13/14 8/70/14 7/9/14
f 27/46/13 30/20/13 44/19/13 40/60/13
f 37/30/20 42/57/20 46/59/20 36/33/20
f 33/29/21 41/54/21 42/57/21 37/30/21
f 25/17/22 39/48/22 41/53/22 33/18/22
f 3/71/14 4/51/14 39/48/14 43/47/14
f 9/2/23 45/37/23 40/41/23 1/11/23
f 3/1/23 43/34/23 45/37/23 9/2/23
f 2/61/24 44/19/24 46/22/24 18/72/24
f 23/50/14 26/14/14 50/13/14 54/69/14
f 31/39/25 52/67/25 49/68/25 28/42/25
f 23/38/25 54/66/25 52/67/25 31/39/25
f 29/23/26 53/44/26 51/65/26 35/24/26
f 5/5/13 6/63/13 53/44/13 49/43/13
f 16/73/27 47/28/27 51/32/27 17/64/27
f 15/74/28 48/25/28 47/28/28 16/73/28
f 8/70/29 50/13/29 48/16/29 15/74/29
